<svg xmlns="http://www.w3.org/2000/svg" width="271.67" height="269.5" viewBox="0 0 271.67 269.5">
  <g>
    <g>
      <ellipse cx="135.83" cy="134.75" rx="126.87" ry="125.79" fill="#fff"/>
      <path d="M135.83,269.5C60.93,269.5,0,209.05,0,134.75S60.93,0,135.83,0,271.67,60.45,271.67,134.75,210.73,269.5,135.83,269.5Zm0-251.57c-65,0-117.9,52.4-117.9,116.82s52.89,116.82,117.9,116.82,117.91-52.4,117.91-116.82S200.85,17.93,135.83,17.93Z" fill="#8dc63f"/>
    </g>
    <g>
      <path d="M151,158.59c8.13,20.22,17,40.4,27.93,60.53a14,14,0,0,0,20.24,4.71A110,110,0,0,0,227.47,195a13.74,13.74,0,0,0-7.61-20.75c-21.64-6.49-41.71-14.48-61.28-22.9A5.68,5.68,0,0,0,151,158.59Z" fill="#f3bd48"/>
      <path d="M162,141.56c20.57,8.83,41.6,17.15,64.37,23.69A14,14,0,0,0,244,154.36a108.73,108.73,0,0,0-.37-41.11,14,14,0,0,0-20.18-9.49c-20.48,10.72-40.92,19.36-61.31,27.36A5.63,5.63,0,0,0,162,141.56Z" fill="#f09f53"/>
      <path d="M141,161.29a5.72,5.72,0,0,0-10.53-.16c-8.9,20.34-17.27,41.12-23.86,63.6a13.85,13.85,0,0,0,11.08,17.53,112.47,112.47,0,0,0,18.19,1.48,111.2,111.2,0,0,0,22.88-2.36,13.83,13.83,0,0,0,9.53-20C157.56,201.32,148.93,181.28,141,161.29Z" fill="#ecdc13"/>
      <path d="M131.72,109.12a5.72,5.72,0,0,0,10.53.16c9-20.54,17.42-41.56,24-64.33a13.87,13.87,0,0,0-11-17.49,112,112,0,0,0-41.77.55A13.82,13.82,0,0,0,104,48C114.84,68.43,123.61,88.8,131.72,109.12Z" fill="#a95a96"/>
      <path d="M50.93,96.89c22.58,6.73,43.45,15.1,63.82,23.91a5.68,5.68,0,0,0,7.57-7.27c-8.47-21.19-17.63-42.34-29.18-63.45A14,14,0,0,0,72.9,45.37,110.19,110.19,0,0,0,43.08,76.22,13.81,13.81,0,0,0,50.93,96.89Z" fill="#2b8ec1"/>
      <path d="M120.79,157.28a5.68,5.68,0,0,0-7.34-7.5C92.62,158,71.83,166.87,51.09,178a13.74,13.74,0,0,0-4.69,20.14,110.07,110.07,0,0,0,30.13,28.41,14,14,0,0,0,20.8-7.63C104,197.14,112.16,177,120.79,157.28Z" fill="#add14c"/>
      <path d="M151.57,113.82a5.67,5.67,0,0,0,7.33,7.51c20.94-8.25,41.83-17.2,62.68-28.41a13.76,13.76,0,0,0,4.81-20A110.13,110.13,0,0,0,196.3,43.72a14,14,0,0,0-20.93,7.56C168.65,73.4,160.33,93.86,151.57,113.82Z" fill="#e74253"/>
      <path d="M109.68,129.83C89,120.94,67.88,112.59,45,106a14,14,0,0,0-17.67,11,109.81,109.81,0,0,0-1.44,17.7,108.51,108.51,0,0,0,2.6,23.66,13.94,13.94,0,0,0,20.09,9.08c20.34-10.66,40.65-19.27,60.93-27.22A5.63,5.63,0,0,0,109.68,129.83Z" fill="#01b699"/>
    </g>
  </g>
</svg>
