<?xml version="1.0" encoding="utf-8"?>
<!-- Generator: Adobe Illustrator 26.3.1, SVG Export Plug-In . SVG Version: 6.00 Build 0)  -->
<svg version="1.1" id="Layer_1" xmlns="http://www.w3.org/2000/svg" xmlns:xlink="http://www.w3.org/1999/xlink" x="0px" y="0px"
	 viewBox="0 0 720 720" style="enable-background:new 0 0 720 720;" xml:space="preserve">
<style type="text/css">
	.st0{fill:none;stroke:#00979C;stroke-width:59;}
	.st1{fill:none;stroke:#00979C;stroke-width:25;}
	.st2{fill:none;stroke:#00979C;stroke-width:32;}
	.st3{fill:#00979C;stroke:#00979C;}
</style>
<g>
	<g>
		<path class="st0" d="M174,139.5c-95.1-7.6-175,105-136,192c38,94.4,181,120,249,44.4c65.9-64.6,91.3-164,172-215
			c82-56,214-3.1,230,96.4c15.6,95.3-87.1,188-180,160c-68.7-15.5-118-74.2-146-136c-34.5-59-79.6-122-150-138
			c-12.5-2.8-25.4-4-38.2-3.9L174,139.5z"/>
		<path class="st1" d="M118,274.5h120"/>
		<path class="st2" d="M486,274.5h100 M535,224.5v100"/>
	</g>
	<path class="st3" d="M84,594.5l-6.4-23H37l-6.6,23H8.7l34.4-116h30.6l34.4,116H84z M57.6,499.5l-15.3,54.1h30.4L57.6,499.5z
		 M180,594.5c0,0-11.7-27.6-18.3-41c-3.8-5.8-11.4-8-18-7.1c-0.6,15.7-0.5,48.1-0.5,48.1h-21.9v-116c0,0,33-1,49.4,1.2
		c34.7,3.9,37,54.4,2.1,59.7c6.5,2.6,10.5,8.6,13.3,14.8l17.5,36.2c1.2,2.5,1.2,4.4-2.3,4.4L180,594.5z M174.6,512.4
		c-0.1-17.9-18-15.9-31.3-16v32.8C159,529.7,174.3,528.1,174.6,512.4z M302,564.5c-10.6,24.5-33.8,30.2-55.8,29.8h-26.9v-116
		l40.9,0.2c50.6,1.6,52.4,56.2,41.7,86.4L302,564.5z M274,503.2c-10.2-8.8-21.4-7-32.8-7v79.7c10,0,20.9,0.8,29.4-5.4
		C288.7,559.1,286.4,515.9,274,503.2L274,503.2z M407,551.5c2.2,58.6-81.5,58.4-84,12.7c-1.5-14-0.3-28-0.7-42V478h21.9l0.4,83
		c2.6,22.9,33,20.9,37.6,8.2c4.7-10.1,2.5-21.5,3-32.3V478h21.9v73.5H407z M428,495.5v-17.9h73.5v17.9h-25.6v80.4h25.6V594H428
		v-18.1h25.6v-80.4H428z M583,594.5l-37.6-84.4v84.4h-19.9v-116h26.9l37.4,83.6c0.1-6,0-83.6,0-83.6h19.9v116H583z M700,584.5
		c-24.3,20.9-66.7,16.3-75.1-24.9C613.4,497,647.3,461,694.5,482c29,16.3,27.4,83.4,5.5,103V584.5z M670.7,495.8
		c-20.7-0.5-23.7,20.6-24.5,30.8c-0.2,19.3-1.9,51.4,24.9,50c8.3,0,15.5-6,18.2-13.7C694.8,550.8,698.9,494.8,670.7,495.8
		L670.7,495.8z M676,122.9v2.3h5.2v13.6h2.7v-13.6h5.2v-2.3H676z M690.8,122.9v15.9h2.4v-13.6l4.3,13.6h2.4l4.1-13.3v13.3h2.4v-15.9
		h-3.8l-3.9,12.7l-4-12.7H690.8z"/>
</g>
</svg>
