<?xml version="1.0" encoding="UTF-8"?><svg id="Layer_2" xmlns="http://www.w3.org/2000/svg" viewBox="0 0 233.73 233.4"><defs><style>.cls-1{fill:#ef9f5c;}.cls-2{fill:#f2bc54;}.cls-3{fill:#faf9f7;}.cls-4{fill:#eedf59;}.cls-5{fill:#9eb7d2;}.cls-6{fill:#a55e95;}.cls-7{fill:#e27f47;}.cls-8{fill:#e24156;}.cls-9{fill:#70bb53;}.cls-10{fill:#328fbe;}</style></defs><g id="Layer_1-2"><path class="cls-9" d="M116.97,0c64.7,.08,116.88,52.43,116.77,117.14-.12,63.96-52.54,116.19-116.67,116.27C52.53,233.48-.05,180.96,0,116.48,.05,52.31,52.65-.08,116.97,0Zm-.26,225.58c59.47,.23,108.92-48.4,109.16-107.35,.25-61.45-48.4-110.78-109.05-110.57C57.22,7.86,8.09,56.41,7.82,115.38c-.28,61.12,47.99,109.97,108.89,110.2Z"/><path class="cls-3" d="M116.71,225.58c-60.9-.23-109.17-49.08-108.89-110.2C8.09,56.41,57.22,7.86,116.82,7.66c60.65-.21,109.3,49.12,109.05,110.57-.24,58.95-49.69,107.58-109.16,107.35Zm4.8-98.25c-.4,2.1-.68,2.86-.68,3.62-.02,25.97-.07,51.94,.03,77.91,.02,5.07,3.55,7.83,8.65,7.19,17.01-2.16,32.49-8.28,46.38-18.32,7.37-5.32,7.61-8.95,1.3-15.27-17.06-17.08-34.13-34.15-51.22-51.2-1.12-1.12-2.38-2.11-4.46-3.93Zm-8.61,1.55l-1.49-.74c-1.3,1.15-2.67,2.23-3.89,3.45-16.98,16.95-33.95,33.9-50.89,50.88-6.26,6.27-6.02,10.08,1.34,15.29,12.95,9.18,27.13,15.43,42.99,17.7,9.61,1.38,11.94-.45,11.94-10.27,0-23.49,0-46.98,0-70.46,0-1.95,0-3.9,0-5.85Zm15.37-7.54c1.29,1.81,1.89,2.97,2.77,3.85,17.65,17.7,35.3,35.4,53.03,53.02,4.16,4.13,8.79,4.03,12-.34,10.2-13.89,17.77-28.96,19.84-46.34,1.01-8.43-1.19-10.96-9.7-10.99-24-.07-47.99-.04-71.99,0-1.71,0-3.42,.44-5.95,.78Zm-22.29,.25c-1.75-.59-2.35-.97-2.95-.97-26-.04-52-.15-77.99,.04-5.84,.04-7.98,2.97-7.44,8.83,1.6,17.44,8.93,32.6,18.82,46.71,4.41,6.3,8.75,6.67,14.23,1.19,17.09-17.08,34.18-34.17,51.25-51.27,1.24-1.24,2.35-2.6,4.09-4.53Zm21.87-9.88c2.12,.51,3.03,.91,3.95,.92,25.64,.03,51.28,.1,76.92-.05,5.98-.04,8.08-3.04,7.43-9.23-1.77-16.86-8.68-31.64-18.22-45.38-4.99-7.18-9.19-7.62-15.26-1.56-16.85,16.83-33.68,33.66-50.5,50.51-1.25,1.26-2.39,2.64-4.33,4.8Zm-21.73,.45c-1.79-2.15-2.7-3.43-3.79-4.53-17.4-17.43-34.81-34.85-52.25-52.24-4.13-4.12-9.07-4.41-12.08-.36-10.37,13.94-18.03,29.13-20.2,46.62-1.09,8.82,1.01,11.05,10.02,11.06,23.96,.04,47.93,.02,71.89,0,1.72,0,3.44-.28,6.4-.55Zm15.27-6.33c2.3-1.94,3.73-2.97,4.95-4.19,16.99-16.95,33.96-33.91,50.91-50.89,6.11-6.12,5.88-9.85-1.18-14.96-13.75-9.95-29.04-16.17-45.92-18.31-6.33-.8-9.31,1.88-9.32,8.47-.04,24.66-.03,49.32,0,73.99,0,1.55,.28,3.1,.56,5.89Zm-9.24-.08c.4-2.23,.71-3.15,.71-4.07,.03-25.65,.08-51.31-.02-76.96-.02-5.47-3.24-7.98-8.95-7.26-17.04,2.15-32.49,8.38-46.36,18.48-6.72,4.9-6.99,8.81-1.17,14.64,17.06,17.1,34.15,34.17,51.24,51.23,1.13,1.13,2.41,2.11,4.54,3.94Z"/><path class="cls-10" d="M121.51,127.33c2.08,1.82,3.34,2.81,4.46,3.93,17.08,17.06,34.16,34.12,51.22,51.2,6.31,6.31,6.06,9.94-1.3,15.27-13.89,10.04-29.37,16.16-46.38,18.32-5.1,.65-8.63-2.12-8.65-7.19-.1-25.97-.05-51.94-.03-77.91,0-.76,.28-1.53,.68-3.62Z"/><path class="cls-6" d="M112.9,128.88c0,1.95,0,3.9,0,5.85,0,23.49,0,46.98,0,70.46,0,9.82-2.33,11.65-11.94,10.27-15.85-2.28-30.03-8.53-42.99-17.7-7.36-5.22-7.6-9.02-1.34-15.29,16.95-16.98,33.92-33.93,50.89-50.88,1.23-1.22,2.59-2.3,3.89-3.45l1.49,.74Z"/><path class="cls-5" d="M128.27,121.34c2.53-.35,4.24-.78,5.95-.78,24-.04,47.99-.07,71.99,0,8.51,.02,10.71,2.56,9.7,10.99-2.07,17.38-9.64,32.45-19.84,46.34-3.21,4.37-7.84,4.47-12,.34-17.73-17.62-35.38-35.32-53.03-53.02-.88-.88-1.48-2.04-2.77-3.85Z"/><path class="cls-8" d="M105.98,121.59c-1.74,1.93-2.85,3.29-4.09,4.53-17.07,17.1-34.16,34.19-51.25,51.27-5.48,5.48-9.82,5.12-14.23-1.19-9.88-14.12-17.22-29.27-18.82-46.71-.54-5.86,1.6-8.79,7.44-8.83,26-.19,51.99-.08,77.99-.04,.6,0,1.21,.38,2.95,.97Z"/><path class="cls-4" d="M127.85,111.71c1.94-2.16,3.07-3.54,4.33-4.8,16.82-16.85,33.66-33.69,50.5-50.51,6.07-6.06,10.27-5.62,15.26,1.56,9.53,13.74,16.45,28.52,18.22,45.38,.65,6.2-1.45,9.2-7.43,9.23-25.64,.15-51.28,.08-76.92,.05-.91,0-1.83-.41-3.95-.92Z"/><path class="cls-7" d="M106.12,112.16c-2.96,.26-4.68,.54-6.4,.55-23.96,.03-47.93,.04-71.89,0-9.01-.01-11.12-2.24-10.02-11.06,2.17-17.49,9.83-32.68,20.2-46.62,3.01-4.04,7.95-3.75,12.08,.36,17.44,17.39,34.85,34.81,52.25,52.24,1.09,1.1,2,2.38,3.79,4.53Z"/><path class="cls-2" d="M121.39,105.83c-.27-2.79-.56-4.34-.56-5.89-.03-24.66-.04-49.32,0-73.99,.01-6.59,2.99-9.28,9.32-8.47,16.88,2.14,32.17,8.36,45.92,18.31,7.06,5.11,7.29,8.84,1.18,14.96-16.95,16.98-33.92,33.95-50.91,50.89-1.23,1.23-2.65,2.26-4.95,4.19Z"/><path class="cls-1" d="M112.14,105.75c-2.12-1.84-3.41-2.81-4.54-3.94-17.1-17.06-34.18-34.14-51.24-51.23-5.82-5.83-5.55-9.74,1.17-14.64,13.86-10.1,29.32-16.33,46.36-18.48,5.71-.72,8.93,1.8,8.95,7.26,.09,25.65,.04,51.31,.02,76.96,0,.92-.31,1.85-.71,4.07Z"/></g></svg>